<svg class="ldi-esydb9" width="200px"  height="200px"  xmlns="http://www.w3.org/2000/svg" xmlns:xlink="http://www.w3.org/1999/xlink" viewBox="0 0 100 100" preserveAspectRatio="xMidYMid" style="background: none;"><!--?xml version="1.0" encoding="utf-8"?--><!--Generator: Adobe Illustrator 21.0.0, SVG Export Plug-In . SVG Version: 6.00 Build 0)--><svg version="1.1" id="Layer_1" xmlns="http://www.w3.org/2000/svg" xmlns:xlink="http://www.w3.org/1999/xlink" x="0px" y="0px" viewBox="0 0 100 100" style="transform-origin: 50px 50px 0px;" xml:space="preserve"><g style="transform-origin: 50px 50px 0px;"><g style="transform-origin: 50px 50px 0px; transform: scale(0.6);"><g style="transform-origin: 50px 50px 0px; animation-duration: 1s; animation-delay: -1s; animation-direction: normal;" class=""><g><style type="text/css" class="ld ld-tremble-px" style="transform-origin: 50px 50px 0px; animation-duration: 1s; animation-delay: -1s; animation-direction: normal;">.st0{fill:#f7f7f7}.st1{fill:#000101}.st2{fill:#d31e35}.st3{fill:#039547}.st4{fill:#fcce14}.st5{fill:#5d97b0}.st6{fill:#fee000}.st7{fill:none}.st8{fill:#ed1b23}.st9{fill:#fff}.st10{fill:#ccc}.st11{fill:#225c34}.st12{fill:#2556a7}.st13{fill:#fbd117}.st14,.st15,.st16,.st17{clip-path:url(#SVGID_2_);fill:#225c34}.st15,.st16,.st17{fill:#2556a7}.st16,.st17{fill:#fbd117}.st17{fill:#fff}.st18{fill:#04733b}.st19{fill:#ed2123}.st20,.st21,.st22,.st23{clip-path:url(#SVGID_4_);fill:#04733b}.st21,.st22,.st23{fill:#fff}.st22,.st23{fill:#000101}.st23{fill:#ed2123}.st24{clip-path:url(#SVGID_6_)}.st25{fill:#c13d39}.st26{fill:#243775}.st27{fill:#b22335}.st27,.st28,.st29{clip-path:url(#SVGID_8_)}.st29{fill:#3d3b6e}.st30,.st31,.st32,.st33{clip-path:url(#SVGID_10_);fill:#006b4f}.st31,.st32,.st33{fill:#fecf07}.st32,.st33{fill:#d31e35}.st33{fill:#fff}.st34,.st35,.st36{clip-path:url(#SVGID_12_);fill:#d91d36}.st35,.st36{fill:#fff}.st36{fill:#000101}.st37,.st38{clip-path:url(#SVGID_14_);fill:#c01f25}.st38{fill:#f7f7f7}.st39,.st40{clip-path:url(#SVGID_16_);fill:#e41d25}.st40{fill:#fff}.st41{fill:#e21d25}.st41,.st42{clip-path:url(#SVGID_18_)}.st43{fill:#28ae65}.st43,.st44{clip-path:url(#SVGID_20_)}.st45{fill:#28ae65}.st46{fill:#cb3745}.st47{fill:#383739}.st48{fill:#faae28}.st49,.st50{clip-path:url(#SVGID_22_);fill:#5d97b0}.st50{fill:#fecf07}.st51{fill:#263376}.st51,.st52{clip-path:url(#SVGID_22_)}.st53{fill:#cf1f2c}.st54,.st55,.st56{clip-path:url(#SVGID_24_);fill:#000101}.st55,.st56{fill:#fcdc00}.st56{fill:#d91e26}.st57{fill:#fff}.st57,.st58{clip-path:url(#SVGID_24_)}.st59{fill:#9ca69b}.st60{fill:#d91e26}.st61,.st62{clip-path:url(#SVGID_26_);fill:#245eac}.st62{fill:#fed500}.st63{clip-path:url(#SVGID_28_);fill:#f7f7f7}.st64{fill:#1c429b}.st64,.st65{clip-path:url(#SVGID_28_)}.st66{fill:#7a411a}.st67,.st68,.st69,.st70{clip-path:url(#SVGID_30_);fill:#29b34a}.st68,.st69,.st70{fill:#0099b5}.st69,.st70{fill:#ce1f27}.st70{fill:#fff}.st71,.st72,.st73,.st74{clip-path:url(#SVGID_32_);fill:#cf1f2c}.st72,.st73,.st74{fill:#263376}.st73,.st74{fill:#ffcd02}.st74{fill:#fff}.st75,.st76,.st77{clip-path:url(#SVGID_34_);fill:#d31e35}.st76,.st77{fill:#039547}.st77{fill:#fcce14}.st78{fill:#000101}.st78,.st79{clip-path:url(#SVGID_34_)}.st80{fill:#fcce14;stroke:#fcce14;stroke-width:.2222}.st81,.st82{clip-path:url(#SVGID_36_);fill:#d92826}.st82{fill:#f6eb14}.st83,.st84,.st85{clip-path:url(#SVGID_38_);fill:#000101}.st84,.st85{fill:#fff}.st85{fill:#ce1f27}.st86,.st87,.st88,.st89{clip-path:url(#SVGID_40_);fill:#218b43}.st87,.st88,.st89{fill:#ee7e22}.st88,.st89{fill:#000101}.st89{fill:#dd2626}.st90{fill:none}.st90,.st91{clip-path:url(#SVGID_40_)}.st92{fill:#ee7e22}.st93,.st94,.st95{clip-path:url(#SVGID_42_);fill:#000101}.st94,.st95{fill:#f7f7f7}.st95{fill:#d21f26}.st96{fill:#ffcd02}.st96,.st97,.st98,.st99{clip-path:url(#SVGID_42_)}.st98,.st99{fill:#176533}.st99{fill:#fed206}.st100{fill:#b22335}.st101{fill:#3d3b6e}.st102{fill:#006b4f}.st103{fill:#fecf07}.st104{fill:#c01f25}.st105{fill:#d91d36}.st106{fill:#e41d25}.st107{fill:#e21d25}.st108{fill:#263376}.st109{fill:#fcdc00}.st110{fill:#245eac}.st111{fill:#fed500}.st112{fill:#1c429b}.st113{fill:#29b34a}.st114{fill:#0099b5}.st115{fill:#ce1f27}.st116{fill:#fcce14;stroke:#fcce14;stroke-width:.15}.st117{fill:#ffcd02}.st118{fill:#d92826}.st119{fill:#f6eb14}.st120{fill:#218b43}.st121{fill:#dd2626}.st122{fill:#d21f26}.st123{fill:#176533}.st124{fill:#fed206}</style><g class="ld ld-tremble-px" style="transform-origin: 50px 50px 0px; animation-duration: 1s; animation-delay: -0.986842s; animation-direction: normal;"><rect x="5" y="62.753" class="st100" width="90" height="3.644" fill="rgb(178, 35, 53)" style="fill: rgb(178, 35, 53);"></rect></g><g class="ld ld-tremble-px" style="transform-origin: 50px 50px 0px; animation-duration: 1s; animation-delay: -0.973684s; animation-direction: normal;"><rect x="5" y="48.178" class="st100" width="90" height="3.644" fill="rgb(178, 35, 53)" style="fill: rgb(178, 35, 53);"></rect></g><g class="ld ld-tremble-px" style="transform-origin: 50px 50px 0px; animation-duration: 1s; animation-delay: -0.960526s; animation-direction: normal;"><rect x="5" y="70.04" class="st100" width="90" height="3.644" fill="rgb(178, 35, 53)" style="fill: rgb(178, 35, 53);"></rect></g><g class="ld ld-tremble-px" style="transform-origin: 50px 50px 0px; animation-duration: 1s; animation-delay: -0.947368s; animation-direction: normal;"><rect x="5" y="55.466" class="st100" width="90" height="3.644" fill="rgb(178, 35, 53)" style="fill: rgb(178, 35, 53);"></rect></g><g class="ld ld-tremble-px" style="transform-origin: 50px 50px 0px; animation-duration: 1s; animation-delay: -0.934211s; animation-direction: normal;"><rect x="5" y="26.316" class="st100" width="90" height="3.644" fill="rgb(178, 35, 53)" style="fill: rgb(178, 35, 53);"></rect></g><g class="ld ld-tremble-px" style="transform-origin: 50px 50px 0px; animation-duration: 1s; animation-delay: -0.921053s; animation-direction: normal;"><rect x="5" y="40.891" class="st100" width="90" height="3.644" fill="rgb(178, 35, 53)" style="fill: rgb(178, 35, 53);"></rect></g><g class="ld ld-tremble-px" style="transform-origin: 50px 50px 0px; animation-duration: 1s; animation-delay: -0.907895s; animation-direction: normal;"><rect x="5" y="33.603" class="st100" width="90" height="3.644" fill="rgb(178, 35, 53)" style="fill: rgb(178, 35, 53);"></rect></g><g style="transform-origin: 50px 50px 0px;"><g><g class="ld ld-tremble-px" style="transform-origin: 50px 50px 0px; animation-duration: 1s; animation-delay: -0.894737s; animation-direction: normal;"><polygon class="st9" points="5,29.96 5,31.781 5,33.603 95,33.603 95,31.781 95,29.96 	" fill="rgb(255, 255, 255)" style="fill: rgb(255, 255, 255);"></polygon></g><g class="ld ld-tremble-px" style="transform-origin: 50px 50px 0px; animation-duration: 1s; animation-delay: -0.881579s; animation-direction: normal;"><polygon class="st9" points="5,39.069 5,40.891 95,40.891 95,39.069 95,37.247 5,37.247 	" fill="rgb(255, 255, 255)" style="fill: rgb(255, 255, 255);"></polygon></g><g class="ld ld-tremble-px" style="transform-origin: 50px 50px 0px; animation-duration: 1s; animation-delay: -0.868421s; animation-direction: normal;"><polygon class="st9" points="5,46.356 5,48.178 95,48.178 95,46.356 95,44.534 5,44.534 	" fill="rgb(255, 255, 255)" style="fill: rgb(255, 255, 255);"></polygon></g><g class="ld ld-tremble-px" style="transform-origin: 50px 50px 0px; animation-duration: 1s; animation-delay: -0.855263s; animation-direction: normal;"><polygon class="st9" points="5,68.219 5,70.04 95,70.04 95,68.219 95,66.397 5,66.397 	" fill="rgb(255, 255, 255)" style="fill: rgb(255, 255, 255);"></polygon></g><g class="ld ld-tremble-px" style="transform-origin: 50px 50px 0px; animation-duration: 1s; animation-delay: -0.842105s; animation-direction: normal;"><polygon class="st9" points="5,60.931 5,62.753 95,62.753 95,60.931 95,59.109 5,59.109 	" fill="rgb(255, 255, 255)" style="fill: rgb(255, 255, 255);"></polygon></g><g class="ld ld-tremble-px" style="transform-origin: 50px 50px 0px; animation-duration: 1s; animation-delay: -0.828947s; animation-direction: normal;"><polygon class="st9" points="5,53.644 5,55.466 95,55.466 95,53.644 95,51.822 5,51.822 	" fill="rgb(255, 255, 255)" style="fill: rgb(255, 255, 255);"></polygon></g></g></g><g class="ld ld-tremble-px" style="transform-origin: 50px 50px 0px; animation-duration: 1s; animation-delay: -0.815789s; animation-direction: normal;"><rect x="5" y="26.316" class="st101" width="36" height="25.506" fill="rgb(61, 59, 110)" style="fill: rgb(61, 59, 110);"></rect></g><g style="transform-origin: 50px 50px 0px;"><g><g class="ld ld-tremble-px" style="transform-origin: 50px 50px 0px; animation-duration: 1s; animation-delay: -0.802632s; animation-direction: normal;"><polygon class="st9" points="8,27.409 7.673,28.416 6.614,28.416 7.471,29.038 7.143,30.046 8,29.423 8.857,30.046 8.529,29.038 9.386,28.416 8.327,28.416 	" fill="rgb(255, 255, 255)" style="fill: rgb(255, 255, 255);"></polygon></g><g class="ld ld-tremble-px" style="transform-origin: 50px 50px 0px; animation-duration: 1s; animation-delay: -0.789474s; animation-direction: normal;"><polygon class="st9" points="8,32.51 7.673,33.517 6.614,33.517 7.471,34.14 7.143,35.147 8,34.524 8.857,35.147 8.529,34.14 9.386,33.517 8.327,33.517 	" fill="rgb(255, 255, 255)" style="fill: rgb(255, 255, 255);"></polygon></g><g class="ld ld-tremble-px" style="transform-origin: 50px 50px 0px; animation-duration: 1s; animation-delay: -0.776316s; animation-direction: normal;"><polygon class="st9" points="8,37.611 7.673,38.618 6.614,38.618 7.471,39.241 7.143,40.248 8,39.626 8.857,40.248 8.529,39.241 9.386,38.618 8.327,38.618 	" fill="rgb(255, 255, 255)" style="fill: rgb(255, 255, 255);"></polygon></g><g class="ld ld-tremble-px" style="transform-origin: 50px 50px 0px; animation-duration: 1s; animation-delay: -0.763158s; animation-direction: normal;"><polygon class="st9" points="8,42.713 7.673,43.72 6.614,43.72 7.471,44.342 7.143,45.349 8,44.727 8.857,45.349 8.529,44.342 9.386,43.72 8.327,43.72 	" fill="rgb(255, 255, 255)" style="fill: rgb(255, 255, 255);"></polygon></g><g class="ld ld-tremble-px" style="transform-origin: 50px 50px 0px; animation-duration: 1s; animation-delay: -0.75s; animation-direction: normal;"><polygon class="st9" points="8.327,48.821 8,47.814 7.673,48.821 6.614,48.821 7.471,49.443 7.143,50.45 8,49.828 8.857,50.45 8.529,49.443 9.386,48.821 	" fill="rgb(255, 255, 255)" style="fill: rgb(255, 255, 255);"></polygon></g><g class="ld ld-tremble-px" style="transform-origin: 50px 50px 0px; animation-duration: 1s; animation-delay: -0.736842s; animation-direction: normal;"><polygon class="st9" points="11,29.96 10.673,30.967 9.614,30.967 10.471,31.589 10.143,32.596 11,31.974 11.857,32.596 11.529,31.589 12.386,30.967 11.327,30.967 	" fill="rgb(255, 255, 255)" style="fill: rgb(255, 255, 255);"></polygon></g><g class="ld ld-tremble-px" style="transform-origin: 50px 50px 0px; animation-duration: 1s; animation-delay: -0.723684s; animation-direction: normal;"><polygon class="st9" points="11,35.061 10.673,36.068 9.614,36.068 10.471,36.69 10.143,37.697 11,37.075 11.857,37.697 11.529,36.69 12.386,36.068 11.327,36.068 	" fill="rgb(255, 255, 255)" style="fill: rgb(255, 255, 255);"></polygon></g><g class="ld ld-tremble-px" style="transform-origin: 50px 50px 0px; animation-duration: 1s; animation-delay: -0.710526s; animation-direction: normal;"><polygon class="st9" points="11,40.162 10.673,41.169 9.614,41.169 10.471,41.791 10.143,42.799 11,42.176 11.857,42.799 11.529,41.791 12.386,41.169 11.327,41.169 	" fill="rgb(255, 255, 255)" style="fill: rgb(255, 255, 255);"></polygon></g><g class="ld ld-tremble-px" style="transform-origin: 50px 50px 0px; animation-duration: 1s; animation-delay: -0.697368s; animation-direction: normal;"><polygon class="st9" points="11.327,46.27 11,45.263 10.673,46.27 9.614,46.27 10.471,46.893 10.143,47.9 11,47.277 11.857,47.9 11.529,46.893 12.386,46.27 	" fill="rgb(255, 255, 255)" style="fill: rgb(255, 255, 255);"></polygon></g><g class="ld ld-tremble-px" style="transform-origin: 50px 50px 0px; animation-duration: 1s; animation-delay: -0.684211s; animation-direction: normal;"><polygon class="st9" points="14,27.409 13.673,28.416 12.614,28.416 13.471,29.038 13.143,30.046 14,29.423 14.857,30.046 14.529,29.038 15.386,28.416 14.327,28.416 	" fill="rgb(255, 255, 255)" style="fill: rgb(255, 255, 255);"></polygon></g><g class="ld ld-tremble-px" style="transform-origin: 50px 50px 0px; animation-duration: 1s; animation-delay: -0.671053s; animation-direction: normal;"><polygon class="st9" points="14,32.51 13.673,33.517 12.614,33.517 13.471,34.14 13.143,35.147 14,34.524 14.857,35.147 14.529,34.14 15.386,33.517 14.327,33.517 	" fill="rgb(255, 255, 255)" style="fill: rgb(255, 255, 255);"></polygon></g><g class="ld ld-tremble-px" style="transform-origin: 50px 50px 0px; animation-duration: 1s; animation-delay: -0.657895s; animation-direction: normal;"><polygon class="st9" points="14,37.611 13.673,38.618 12.614,38.618 13.471,39.241 13.143,40.248 14,39.626 14.857,40.248 14.529,39.241 15.386,38.618 14.327,38.618 	" fill="rgb(255, 255, 255)" style="fill: rgb(255, 255, 255);"></polygon></g><g class="ld ld-tremble-px" style="transform-origin: 50px 50px 0px; animation-duration: 1s; animation-delay: -0.644737s; animation-direction: normal;"><polygon class="st9" points="14,42.713 13.673,43.72 12.614,43.72 13.471,44.342 13.143,45.349 14,44.727 14.857,45.349 14.529,44.342 15.386,43.72 14.327,43.72 	" fill="rgb(255, 255, 255)" style="fill: rgb(255, 255, 255);"></polygon></g><g class="ld ld-tremble-px" style="transform-origin: 50px 50px 0px; animation-duration: 1s; animation-delay: -0.631579s; animation-direction: normal;"><polygon class="st9" points="14.327,48.821 14,47.814 13.673,48.821 12.614,48.821 13.471,49.443 13.143,50.45 14,49.828 14.857,50.45 14.529,49.443 15.386,48.821 	" fill="rgb(255, 255, 255)" style="fill: rgb(255, 255, 255);"></polygon></g><g class="ld ld-tremble-px" style="transform-origin: 50px 50px 0px; animation-duration: 1s; animation-delay: -0.618421s; animation-direction: normal;"><polygon class="st9" points="17,29.96 16.673,30.967 15.614,30.967 16.471,31.589 16.143,32.596 17,31.974 17.857,32.596 17.529,31.589 18.386,30.967 17.327,30.967 	" fill="rgb(255, 255, 255)" style="fill: rgb(255, 255, 255);"></polygon></g><g class="ld ld-tremble-px" style="transform-origin: 50px 50px 0px; animation-duration: 1s; animation-delay: -0.605263s; animation-direction: normal;"><polygon class="st9" points="17,35.061 16.673,36.068 15.614,36.068 16.471,36.69 16.143,37.697 17,37.075 17.857,37.697 17.529,36.69 18.386,36.068 17.327,36.068 	" fill="rgb(255, 255, 255)" style="fill: rgb(255, 255, 255);"></polygon></g><g class="ld ld-tremble-px" style="transform-origin: 50px 50px 0px; animation-duration: 1s; animation-delay: -0.592105s; animation-direction: normal;"><polygon class="st9" points="17,40.162 16.673,41.169 15.614,41.169 16.471,41.791 16.143,42.799 17,42.176 17.857,42.799 17.529,41.791 18.386,41.169 17.327,41.169 	" fill="rgb(255, 255, 255)" style="fill: rgb(255, 255, 255);"></polygon></g><g class="ld ld-tremble-px" style="transform-origin: 50px 50px 0px; animation-duration: 1s; animation-delay: -0.578947s; animation-direction: normal;"><polygon class="st9" points="17.327,46.27 17,45.263 16.673,46.27 15.614,46.27 16.471,46.893 16.143,47.9 17,47.277 17.857,47.9 17.529,46.893 18.386,46.27 	" fill="rgb(255, 255, 255)" style="fill: rgb(255, 255, 255);"></polygon></g><g class="ld ld-tremble-px" style="transform-origin: 50px 50px 0px; animation-duration: 1s; animation-delay: -0.565789s; animation-direction: normal;"><polygon class="st9" points="20,27.409 19.673,28.416 18.614,28.416 19.471,29.038 19.143,30.046 20,29.423 20.857,30.046 20.529,29.038 21.386,28.416 20.327,28.416 	" fill="rgb(255, 255, 255)" style="fill: rgb(255, 255, 255);"></polygon></g><g class="ld ld-tremble-px" style="transform-origin: 50px 50px 0px; animation-duration: 1s; animation-delay: -0.552632s; animation-direction: normal;"><polygon class="st9" points="20,32.51 19.673,33.517 18.614,33.517 19.471,34.14 19.143,35.147 20,34.524 20.857,35.147 20.529,34.14 21.386,33.517 20.327,33.517 	" fill="rgb(255, 255, 255)" style="fill: rgb(255, 255, 255);"></polygon></g><g class="ld ld-tremble-px" style="transform-origin: 50px 50px 0px; animation-duration: 1s; animation-delay: -0.539474s; animation-direction: normal;"><polygon class="st9" points="20,37.611 19.673,38.618 18.614,38.618 19.471,39.241 19.143,40.248 20,39.626 20.857,40.248 20.529,39.241 21.386,38.618 20.327,38.618 	" fill="rgb(255, 255, 255)" style="fill: rgb(255, 255, 255);"></polygon></g><g class="ld ld-tremble-px" style="transform-origin: 50px 50px 0px; animation-duration: 1s; animation-delay: -0.526316s; animation-direction: normal;"><polygon class="st9" points="20,42.713 19.673,43.72 18.614,43.72 19.471,44.342 19.143,45.349 20,44.727 20.857,45.349 20.529,44.342 21.386,43.72 20.327,43.72 	" fill="rgb(255, 255, 255)" style="fill: rgb(255, 255, 255);"></polygon></g><g class="ld ld-tremble-px" style="transform-origin: 50px 50px 0px; animation-duration: 1s; animation-delay: -0.513158s; animation-direction: normal;"><polygon class="st9" points="20.327,48.821 20,47.814 19.673,48.821 18.614,48.821 19.471,49.443 19.143,50.45 20,49.828 20.857,50.45 20.529,49.443 21.386,48.821 	" fill="rgb(255, 255, 255)" style="fill: rgb(255, 255, 255);"></polygon></g><g class="ld ld-tremble-px" style="transform-origin: 50px 50px 0px; animation-duration: 1s; animation-delay: -0.5s; animation-direction: normal;"><polygon class="st9" points="23,29.96 22.673,30.967 21.614,30.967 22.471,31.589 22.143,32.596 23,31.974 23.857,32.596 23.529,31.589 24.386,30.967 23.327,30.967 	" fill="rgb(255, 255, 255)" style="fill: rgb(255, 255, 255);"></polygon></g><g class="ld ld-tremble-px" style="transform-origin: 50px 50px 0px; animation-duration: 1s; animation-delay: -0.486842s; animation-direction: normal;"><polygon class="st9" points="23,35.061 22.673,36.068 21.614,36.068 22.471,36.69 22.143,37.697 23,37.075 23.857,37.697 23.529,36.69 24.386,36.068 23.327,36.068 	" fill="rgb(255, 255, 255)" style="fill: rgb(255, 255, 255);"></polygon></g><g class="ld ld-tremble-px" style="transform-origin: 50px 50px 0px; animation-duration: 1s; animation-delay: -0.473684s; animation-direction: normal;"><polygon class="st9" points="23,40.162 22.673,41.169 21.614,41.169 22.471,41.791 22.143,42.799 23,42.176 23.857,42.799 23.529,41.791 24.386,41.169 23.327,41.169 	" fill="rgb(255, 255, 255)" style="fill: rgb(255, 255, 255);"></polygon></g><g class="ld ld-tremble-px" style="transform-origin: 50px 50px 0px; animation-duration: 1s; animation-delay: -0.460526s; animation-direction: normal;"><polygon class="st9" points="23.327,46.27 23,45.263 22.673,46.27 21.614,46.27 22.471,46.893 22.143,47.9 23,47.277 23.857,47.9 23.529,46.893 24.386,46.27 	" fill="rgb(255, 255, 255)" style="fill: rgb(255, 255, 255);"></polygon></g><g class="ld ld-tremble-px" style="transform-origin: 50px 50px 0px; animation-duration: 1s; animation-delay: -0.447368s; animation-direction: normal;"><polygon class="st9" points="26,27.409 25.673,28.416 24.614,28.416 25.471,29.038 25.143,30.046 26,29.423 26.857,30.046 26.529,29.038 27.386,28.416 26.327,28.416 	" fill="rgb(255, 255, 255)" style="fill: rgb(255, 255, 255);"></polygon></g><g class="ld ld-tremble-px" style="transform-origin: 50px 50px 0px; animation-duration: 1s; animation-delay: -0.434211s; animation-direction: normal;"><polygon class="st9" points="26,32.51 25.673,33.517 24.614,33.517 25.471,34.14 25.143,35.147 26,34.524 26.857,35.147 26.529,34.14 27.386,33.517 26.327,33.517 	" fill="rgb(255, 255, 255)" style="fill: rgb(255, 255, 255);"></polygon></g><g class="ld ld-tremble-px" style="transform-origin: 50px 50px 0px; animation-duration: 1s; animation-delay: -0.421053s; animation-direction: normal;"><polygon class="st9" points="26,37.611 25.673,38.618 24.614,38.618 25.471,39.241 25.143,40.248 26,39.626 26.857,40.248 26.529,39.241 27.386,38.618 26.327,38.618 	" fill="rgb(255, 255, 255)" style="fill: rgb(255, 255, 255);"></polygon></g><g class="ld ld-tremble-px" style="transform-origin: 50px 50px 0px; animation-duration: 1s; animation-delay: -0.407895s; animation-direction: normal;"><polygon class="st9" points="26,42.713 25.673,43.72 24.614,43.72 25.471,44.342 25.143,45.349 26,44.727 26.857,45.349 26.529,44.342 27.386,43.72 26.327,43.72 	" fill="rgb(255, 255, 255)" style="fill: rgb(255, 255, 255);"></polygon></g><g class="ld ld-tremble-px" style="transform-origin: 50px 50px 0px; animation-duration: 1s; animation-delay: -0.394737s; animation-direction: normal;"><polygon class="st9" points="26.327,48.821 26,47.814 25.673,48.821 24.614,48.821 25.471,49.443 25.143,50.45 26,49.828 26.857,50.45 26.529,49.443 27.386,48.821 	" fill="rgb(255, 255, 255)" style="fill: rgb(255, 255, 255);"></polygon></g><g class="ld ld-tremble-px" style="transform-origin: 50px 50px 0px; animation-duration: 1s; animation-delay: -0.381579s; animation-direction: normal;"><polygon class="st9" points="29,29.96 28.673,30.967 27.614,30.967 28.471,31.589 28.143,32.596 29,31.974 29.857,32.596 29.529,31.589 30.386,30.967 29.327,30.967 	" fill="rgb(255, 255, 255)" style="fill: rgb(255, 255, 255);"></polygon></g><g class="ld ld-tremble-px" style="transform-origin: 50px 50px 0px; animation-duration: 1s; animation-delay: -0.368421s; animation-direction: normal;"><polygon class="st9" points="29,35.061 28.673,36.068 27.614,36.068 28.471,36.69 28.143,37.697 29,37.075 29.857,37.697 29.529,36.69 30.386,36.068 29.327,36.068 	" fill="rgb(255, 255, 255)" style="fill: rgb(255, 255, 255);"></polygon></g><g class="ld ld-tremble-px" style="transform-origin: 50px 50px 0px; animation-duration: 1s; animation-delay: -0.355263s; animation-direction: normal;"><polygon class="st9" points="29,40.162 28.673,41.169 27.614,41.169 28.471,41.791 28.143,42.799 29,42.176 29.857,42.799 29.529,41.791 30.386,41.169 29.327,41.169 	" fill="rgb(255, 255, 255)" style="fill: rgb(255, 255, 255);"></polygon></g><g class="ld ld-tremble-px" style="transform-origin: 50px 50px 0px; animation-duration: 1s; animation-delay: -0.342105s; animation-direction: normal;"><polygon class="st9" points="29.327,46.27 29,45.263 28.673,46.27 27.614,46.27 28.471,46.893 28.143,47.9 29,47.277 29.857,47.9 29.529,46.893 30.386,46.27 	" fill="rgb(255, 255, 255)" style="fill: rgb(255, 255, 255);"></polygon></g><g class="ld ld-tremble-px" style="transform-origin: 50px 50px 0px; animation-duration: 1s; animation-delay: -0.328947s; animation-direction: normal;"><polygon class="st9" points="32,27.409 31.673,28.416 30.614,28.416 31.471,29.038 31.143,30.046 32,29.423 32.857,30.046 32.529,29.038 33.386,28.416 32.327,28.416 	" fill="rgb(255, 255, 255)" style="fill: rgb(255, 255, 255);"></polygon></g><g class="ld ld-tremble-px" style="transform-origin: 50px 50px 0px; animation-duration: 1s; animation-delay: -0.315789s; animation-direction: normal;"><polygon class="st9" points="32,32.51 31.673,33.517 30.614,33.517 31.471,34.14 31.143,35.147 32,34.524 32.857,35.147 32.529,34.14 33.386,33.517 32.327,33.517 	" fill="rgb(255, 255, 255)" style="fill: rgb(255, 255, 255);"></polygon></g><g class="ld ld-tremble-px" style="transform-origin: 50px 50px 0px; animation-duration: 1s; animation-delay: -0.302632s; animation-direction: normal;"><polygon class="st9" points="32,37.611 31.673,38.618 30.614,38.618 31.471,39.241 31.143,40.248 32,39.626 32.857,40.248 32.529,39.241 33.386,38.618 32.327,38.618 	" fill="rgb(255, 255, 255)" style="fill: rgb(255, 255, 255);"></polygon></g><g class="ld ld-tremble-px" style="transform-origin: 50px 50px 0px; animation-duration: 1s; animation-delay: -0.289474s; animation-direction: normal;"><polygon class="st9" points="32,42.713 31.673,43.72 30.614,43.72 31.471,44.342 31.143,45.349 32,44.727 32.857,45.349 32.529,44.342 33.386,43.72 32.327,43.72 	" fill="rgb(255, 255, 255)" style="fill: rgb(255, 255, 255);"></polygon></g><g class="ld ld-tremble-px" style="transform-origin: 50px 50px 0px; animation-duration: 1s; animation-delay: -0.276316s; animation-direction: normal;"><polygon class="st9" points="32.327,48.821 32,47.814 31.673,48.821 30.614,48.821 31.471,49.443 31.143,50.45 32,49.828 32.857,50.45 32.529,49.443 33.386,48.821 	" fill="rgb(255, 255, 255)" style="fill: rgb(255, 255, 255);"></polygon></g><g class="ld ld-tremble-px" style="transform-origin: 50px 50px 0px; animation-duration: 1s; animation-delay: -0.263158s; animation-direction: normal;"><polygon class="st9" points="35,29.96 34.673,30.967 33.614,30.967 34.471,31.589 34.143,32.596 35,31.974 35.857,32.596 35.529,31.589 36.386,30.967 35.327,30.967 	" fill="rgb(255, 255, 255)" style="fill: rgb(255, 255, 255);"></polygon></g><g class="ld ld-tremble-px" style="transform-origin: 50px 50px 0px; animation-duration: 1s; animation-delay: -0.25s; animation-direction: normal;"><polygon class="st9" points="35,35.061 34.673,36.068 33.614,36.068 34.471,36.69 34.143,37.697 35,37.075 35.857,37.697 35.529,36.69 36.386,36.068 35.327,36.068 	" fill="rgb(255, 255, 255)" style="fill: rgb(255, 255, 255);"></polygon></g><g class="ld ld-tremble-px" style="transform-origin: 50px 50px 0px; animation-duration: 1s; animation-delay: -0.236842s; animation-direction: normal;"><polygon class="st9" points="35,40.162 34.673,41.169 33.614,41.169 34.471,41.791 34.143,42.799 35,42.176 35.857,42.799 35.529,41.791 36.386,41.169 35.327,41.169 	" fill="rgb(255, 255, 255)" style="fill: rgb(255, 255, 255);"></polygon></g><g class="ld ld-tremble-px" style="transform-origin: 50px 50px 0px; animation-duration: 1s; animation-delay: -0.223684s; animation-direction: normal;"><polygon class="st9" points="35.327,46.27 35,45.263 34.673,46.27 33.614,46.27 34.471,46.893 34.143,47.9 35,47.277 35.857,47.9 35.529,46.893 36.386,46.27 	" fill="rgb(255, 255, 255)" style="fill: rgb(255, 255, 255);"></polygon></g><g class="ld ld-tremble-px" style="transform-origin: 50px 50px 0px; animation-duration: 1s; animation-delay: -0.210526s; animation-direction: normal;"><polygon class="st9" points="37.471,29.038 37.143,30.046 38,29.423 38.857,30.046 38.529,29.038 39.386,28.416 38.327,28.416 38,27.409 37.673,28.416 36.614,28.416 	" fill="rgb(255, 255, 255)" style="fill: rgb(255, 255, 255);"></polygon></g><g class="ld ld-tremble-px" style="transform-origin: 50px 50px 0px; animation-duration: 1s; animation-delay: -0.197368s; animation-direction: normal;"><polygon class="st9" points="38,32.51 37.673,33.517 36.614,33.517 37.471,34.14 37.143,35.147 38,34.524 38.857,35.147 38.529,34.14 39.386,33.517 38.327,33.517 	" fill="rgb(255, 255, 255)" style="fill: rgb(255, 255, 255);"></polygon></g><g class="ld ld-tremble-px" style="transform-origin: 50px 50px 0px; animation-duration: 1s; animation-delay: -0.184211s; animation-direction: normal;"><polygon class="st9" points="38,37.611 37.673,38.618 36.614,38.618 37.471,39.241 37.143,40.248 38,39.626 38.857,40.248 38.529,39.241 39.386,38.618 38.327,38.618 	" fill="rgb(255, 255, 255)" style="fill: rgb(255, 255, 255);"></polygon></g><g class="ld ld-tremble-px" style="transform-origin: 50px 50px 0px; animation-duration: 1s; animation-delay: -0.171053s; animation-direction: normal;"><polygon class="st9" points="38,42.713 37.673,43.72 36.614,43.72 37.471,44.342 37.143,45.349 38,44.727 38.857,45.349 38.529,44.342 39.386,43.72 38.327,43.72 	" fill="rgb(255, 255, 255)" style="fill: rgb(255, 255, 255);"></polygon></g><g class="ld ld-tremble-px" style="transform-origin: 50px 50px 0px; animation-duration: 1s; animation-delay: -0.157895s; animation-direction: normal;"><polygon class="st9" points="38.327,48.821 38,47.814 37.673,48.821 36.614,48.821 37.471,49.443 37.143,50.45 38,49.828 38.857,50.45 38.529,49.443 39.386,48.821 	" fill="rgb(255, 255, 255)" style="fill: rgb(255, 255, 255);"></polygon></g></g></g><metadata xmlns:d="https://loading.io/stock/" class="ld ld-tremble-px" style="transform-origin: 50px 50px 0px; animation-duration: 1s; animation-delay: -0.144737s; animation-direction: normal;">
<d:name class="ld ld-tremble-px" style="transform-origin: 50px 50px 0px; animation-duration: 1s; animation-delay: -0.131579s; animation-direction: normal;">the united states</d:name>
<d:tags class="ld ld-tremble-px" style="transform-origin: 50px 50px 0px; animation-duration: 1s; animation-delay: -0.118421s; animation-direction: normal;">the united states,national flag,country,nation symbol</d:tags>
<d:license class="ld ld-tremble-px" style="transform-origin: 50px 50px 0px; animation-duration: 1s; animation-delay: -0.105263s; animation-direction: normal;">cc-by</d:license>
<d:slug class="ld ld-tremble-px" style="transform-origin: 50px 50px 0px; animation-duration: 1s; animation-delay: -0.0921053s; animation-direction: normal;">esydb9</d:slug>
</metadata></g></g></g></g><style type="text/css" class="ld ld-tremble-px" style="transform-origin: 50px 50px 0px; animation-duration: 1s; animation-delay: -0.0789474s; animation-direction: normal;">path,ellipse,circle,rect,polygon,polyline,line { stroke-width: 0; }@keyframes ld-tremble-px {
  0% {
    -webkit-transform: translate(1px, 1px);
    transform: translate(1px, 1px);
  }
  5% {
    -webkit-transform: translate(0, 1px);
    transform: translate(0, 1px);
  }
  10% {
    -webkit-transform: translate(1px, 2px);
    transform: translate(1px, 2px);
  }
  15% {
    -webkit-transform: translate(2px, 1px);
    transform: translate(2px, 1px);
  }
  20% {
    -webkit-transform: translate(3px, 0);
    transform: translate(3px, 0);
  }
  25% {
    -webkit-transform: translate(1px, 2px);
    transform: translate(1px, 2px);
  }
  30% {
    -webkit-transform: translate(1px, 3px);
    transform: translate(1px, 3px);
  }
  35% {
    -webkit-transform: translate(0, 1px);
    transform: translate(0, 1px);
  }
  40% {
    -webkit-transform: translate(1px, 1px);
    transform: translate(1px, 1px);
  }
  45% {
    -webkit-transform: translate(1px, 0);
    transform: translate(1px, 0);
  }
  50% {
    -webkit-transform: translate(2px, 1px);
    transform: translate(2px, 1px);
  }
  55% {
    -webkit-transform: translate(1px, 2px);
    transform: translate(1px, 2px);
  }
  60% {
    -webkit-transform: translate(3px, 1px);
    transform: translate(3px, 1px);
  }
  65% {
    -webkit-transform: translate(0, 2px);
    transform: translate(0, 2px);
  }
  70% {
    -webkit-transform: translate(3px, 0);
    transform: translate(3px, 0);
  }
  75% {
    -webkit-transform: translate(0, 0);
    transform: translate(0, 0);
  }
  80% {
    -webkit-transform: translate(2px, 3px);
    transform: translate(2px, 3px);
  }
  85% {
    -webkit-transform: translate(1px, 0);
    transform: translate(1px, 0);
  }
  90% {
    -webkit-transform: translate(0, 2px);
    transform: translate(0, 2px);
  }
  95% {
    -webkit-transform: translate(3px, 2px);
    transform: translate(3px, 2px);
  }
}
@-webkit-keyframes ld-tremble-px {
  0% {
    -webkit-transform: translate(1px, 1px);
    transform: translate(1px, 1px);
  }
  5% {
    -webkit-transform: translate(0, 1px);
    transform: translate(0, 1px);
  }
  10% {
    -webkit-transform: translate(1px, 2px);
    transform: translate(1px, 2px);
  }
  15% {
    -webkit-transform: translate(2px, 1px);
    transform: translate(2px, 1px);
  }
  20% {
    -webkit-transform: translate(3px, 0);
    transform: translate(3px, 0);
  }
  25% {
    -webkit-transform: translate(1px, 2px);
    transform: translate(1px, 2px);
  }
  30% {
    -webkit-transform: translate(1px, 3px);
    transform: translate(1px, 3px);
  }
  35% {
    -webkit-transform: translate(0, 1px);
    transform: translate(0, 1px);
  }
  40% {
    -webkit-transform: translate(1px, 1px);
    transform: translate(1px, 1px);
  }
  45% {
    -webkit-transform: translate(1px, 0);
    transform: translate(1px, 0);
  }
  50% {
    -webkit-transform: translate(2px, 1px);
    transform: translate(2px, 1px);
  }
  55% {
    -webkit-transform: translate(1px, 2px);
    transform: translate(1px, 2px);
  }
  60% {
    -webkit-transform: translate(3px, 1px);
    transform: translate(3px, 1px);
  }
  65% {
    -webkit-transform: translate(0, 2px);
    transform: translate(0, 2px);
  }
  70% {
    -webkit-transform: translate(3px, 0);
    transform: translate(3px, 0);
  }
  75% {
    -webkit-transform: translate(0, 0);
    transform: translate(0, 0);
  }
  80% {
    -webkit-transform: translate(2px, 3px);
    transform: translate(2px, 3px);
  }
  85% {
    -webkit-transform: translate(1px, 0);
    transform: translate(1px, 0);
  }
  90% {
    -webkit-transform: translate(0, 2px);
    transform: translate(0, 2px);
  }
  95% {
    -webkit-transform: translate(3px, 2px);
    transform: translate(3px, 2px);
  }
}
.ld.ld-tremble-px {
  -webkit-animation: ld-tremble-px 1s infinite;
  animation: ld-tremble-px 1s infinite;
}
</style></svg></svg>